HIERARCHY
ROOT Hips
{
	OFFSET 0.000000 0.000000 0.000000
	CHANNELS 6 Xposition Yposition Zposition Zrotation Yrotation Xrotation 
	JOINT LowerBack
	{
		OFFSET 0.000000 0.000000 0.000000
		CHANNELS 3 Zrotation Yrotation Xrotation
		JOINT Spine
		{
			OFFSET 0.028270 2.035590 -0.193380
			CHANNELS 3 Zrotation Yrotation Xrotation
			JOINT Spine1
			{
				OFFSET 0.056720 2.048850 -0.042750
				CHANNELS 3 Zrotation Yrotation Xrotation
				JOINT Neck
				{
					OFFSET 0.000000 0.000000 0.000000
					CHANNELS 3 Zrotation Yrotation Xrotation
					JOINT Neck1
					{
						OFFSET -0.054170 1.746240 0.172020
						CHANNELS 3 Zrotation Yrotation Xrotation
						JOINT Head
						{
							OFFSET 0.104070 1.761360 -0.123970
							CHANNELS 3 Zrotation Yrotation Xrotation
							End Site
							{
								OFFSET 0.000000 0.000000 0.000000
							}
						}
					}
				}
				JOINT LeftShoulder
				{
					OFFSET 0.000000 0.000000 0.000000
					CHANNELS 3 Zrotation Yrotation Xrotation
					JOINT LeftArm
					{
						OFFSET 3.362410 1.200890 -0.311210
						CHANNELS 3 Zrotation Yrotation Xrotation
						JOINT LeftForeArm
						{
							OFFSET 4.983000 -0.000000 -0.000000
							CHANNELS 3 Zrotation Yrotation Xrotation
							JOINT LeftHand
							{
								OFFSET 3.483560 -0.000000 -0.000000
								CHANNELS 3 Zrotation Yrotation Xrotation
								JOINT LeftFingerBase
								{
									OFFSET 0.000000 0.000000 0.000000
									CHANNELS 3 Zrotation Yrotation Xrotation
									JOINT LeftHandIndex1
									{
										OFFSET 0.715260 -0.000000 -0.000000
										CHANNELS 3 Zrotation Yrotation Xrotation
										End Site
										{
											OFFSET 0.000000 0.000000 0.000000
										}
									}
								}
								JOINT LThumb
								{
									OFFSET 0.000000 0.000000 0.000000
									CHANNELS 3 Zrotation Yrotation Xrotation
									End Site
									{
										OFFSET 0.000000 0.000000 0.000000
									}
								}
							}
						}
					}
				}
				JOINT RightShoulder
				{
					OFFSET 0.000000 0.000000 0.000000
					CHANNELS 3 Zrotation Yrotation Xrotation
					JOINT RightArm
					{
						OFFSET -3.136600 1.374050 -0.404650
						CHANNELS 3 Zrotation Yrotation Xrotation
						JOINT RightForeArm
						{
							OFFSET -5.241900 -0.000000 -0.000000
							CHANNELS 3 Zrotation Yrotation Xrotation
							JOINT RightHand
							{
								OFFSET -3.444170 -0.000000 -0.000000
								CHANNELS 3 Zrotation Yrotation Xrotation
								JOINT RightFingerBase
								{
									OFFSET 0.000000 0.000000 0.000000
									CHANNELS 3 Zrotation Yrotation Xrotation
									JOINT RightHandIndex1
									{
										OFFSET -0.622530 -0.000000 -0.000000
										CHANNELS 3 Zrotation Yrotation Xrotation
										End Site
										{
											OFFSET 0.000000 0.000000 0.000000
										}
									}
								}
								JOINT RThumb
								{
									OFFSET 0.000000 0.000000 0.000000
									CHANNELS 3 Zrotation Yrotation Xrotation
									End Site
									{
										OFFSET 0.000000 0.000000 0.000000
									}
								}
							}
						}
					}
				}
			}
		}
	}
}
}
MOTION
Frames: 9
Frame Time: 0.008333
2.013488 17.307414 0.785520 8.582895 -55.074961 -2.826239 -6.039766 1.743990 -9.233217 -1.845736 2.128777 -4.466210 -3.342081 2.056597 -0.084858 -1.928486 -6.528617 -6.987789 -0.178523 -0.026057 0.234264 0.000000 0.000000 0.000000 7.795493 11.799647 -2.020208 -21.876192 -30.867299 -8.037180 179.313436 -76.690012 179.978372 0.032969 -6.413994 0.008393 0.179031 0.708733 0.000000 0.000000 0.000000 0.000000 0.000000 0.000000 0.000000 -9.628338 -0.213357 3.380848 1.951305 43.814510 -45.014564 -0.613214 -0.282012 -0.043342 -10.353347 3.163150 -0.323556 0.258181 -0.318310 -0.000000 0.000000 0.000000 0.000000 0.000000 0.000000 0.000000 
2.017714 17.307668 0.772845 8.521118 -55.025369 -2.694126 -5.966643 1.635185 -9.237294 -1.811073 2.012274 -4.468751 -3.318065 1.943357 -0.092153 -2.022311 -6.916001 -6.919848 -0.086002 -0.020766 0.257158 0.000000 0.000000 0.000000 7.385126 11.628414 -1.942358 -21.577205 -30.280007 -8.326215 179.313085 -76.226561 179.977170 0.199368 -6.387897 -0.002402 0.172204 0.711797 -0.000000 0.000000 0.000000 0.000000 0.000000 0.000000 0.000000 -10.326009 -0.504078 3.099308 4.154812 43.763441 -43.224918 -0.732045 3.277213 -0.036738 -8.028024 3.670843 -0.288990 0.189939 -0.348318 -0.000000 0.000000 0.000000 0.000000 0.000000 0.000000 0.000000 
2.022436 17.308073 0.760533 8.461190 -55.013903 -2.565822 -5.920622 1.500020 -9.261016 -1.804849 1.866374 -4.476584 -3.382327 1.803505 -0.089330 -1.892618 -7.192697 -6.827779 -0.081321 -0.022217 0.285898 0.000000 0.000000 0.000000 7.135025 11.470593 -1.856259 -21.267444 -29.620299 -8.596142 179.319755 -75.688547 179.976322 0.345876 -6.349242 -0.011898 0.164462 0.715625 0.000000 0.000000 0.000000 0.000000 0.000000 0.000000 0.000000 -10.437711 -0.739045 2.828582 5.889200 43.267712 -38.508594 -0.770082 7.842232 -0.031517 -6.217886 3.734208 -0.228300 0.137948 -0.373044 -0.000000 0.000000 0.000000 0.000000 0.000000 0.000000 0.000000 
2.027301 17.308292 0.748339 8.410278 -55.061357 -2.455836 -5.921082 1.341308 -9.305961 -1.816653 1.699021 -4.493524 -3.475460 1.641606 -0.089086 -1.614353 -7.218497 -6.688728 -0.145832 -0.029469 0.326793 0.000000 0.000000 0.000000 7.036689 11.326921 -1.754710 -21.024521 -28.886089 -8.813661 179.336560 -75.106663 179.975992 0.456838 -6.297549 -0.019090 0.156139 0.719500 -0.000000 0.000000 0.000000 0.000000 0.000000 0.000000 0.000000 -10.095041 -0.782635 2.581577 7.000833 42.183413 -33.039276 -0.793058 13.182842 -0.029986 -5.331501 3.708438 -0.195100 0.106495 -0.397826 -0.000000 0.000000 0.000000 0.000000 0.000000 0.000000 0.000000 
2.032160 17.308275 0.736218 8.377378 -55.183053 -2.361049 -5.931329 1.168037 -9.357405 -1.826681 1.519288 -4.515674 -3.555084 1.465829 -0.097085 -1.322047 -7.132310 -6.517131 -0.233548 -0.038977 0.376761 0.000000 0.000000 0.000000 6.964901 11.228807 -1.635879 -20.796345 -28.105430 -9.009466 179.363484 -74.521900 179.976056 0.537506 -6.244883 -0.024380 0.147497 0.722856 0.000000 0.000000 0.000000 0.000000 0.000000 0.000000 0.000000 -9.605482 -0.757234 2.313023 7.705531 41.012307 -28.845446 -0.854880 18.547383 -0.031991 -5.164510 4.035049 -0.204609 0.086918 -0.426564 -0.000000 0.000000 0.000000 0.000000 0.000000 0.000000 0.000000 
2.037053 17.307910 0.724103 8.365001 -55.384790 -2.280017 -5.939762 0.992001 -9.405758 -1.833010 1.337746 -4.539166 -3.624289 1.287140 -0.110687 -1.041489 -7.057033 -6.332238 -0.326711 -0.049116 0.430714 0.000000 0.000000 0.000000 6.905534 11.188169 -1.509940 -20.590571 -27.318288 -9.187873 179.398535 -73.971016 179.976482 0.585476 -6.195788 -0.027666 0.139136 0.725446 0.000000 0.000000 0.000000 0.000000 0.000000 0.000000 0.000000 -9.072805 -0.769270 2.002736 8.271612 39.982354 -25.997344 -0.949553 23.713602 -0.036913 -5.448160 4.624404 -0.245034 0.073376 -0.456214 -0.000000 0.000000 0.000000 0.000000 0.000000 0.000000 0.000000 
2.042034 17.307093 0.711755 8.378574 -55.666633 -2.219319 -5.951419 0.822076 -9.441366 -1.838313 1.163357 -4.560199 -3.688117 1.114658 -0.124076 -0.765046 -7.049098 -6.148178 -0.418637 -0.059145 0.484646 0.000000 0.000000 0.000000 6.873794 11.210910 -1.385510 -20.431612 -26.567762 -9.348209 179.439861 -73.487455 179.977269 0.596391 -6.151415 -0.028553 0.131600 0.727221 0.000000 0.000000 0.000000 0.000000 0.000000 0.000000 0.000000 -8.524838 -0.862982 1.652606 8.862664 39.099253 -24.117379 -1.054159 28.735262 -0.044025 -5.995137 5.260940 -0.304080 0.063027 -0.483302 -0.000000 0.000000 0.000000 0.000000 0.000000 0.000000 0.000000 
2.046965 17.305873 0.699449 8.403015 -56.021922 -2.161321 -5.961871 0.665515 -9.469074 -1.842751 1.002630 -4.577668 -3.749371 0.955030 -0.129689 -0.485026 -7.155350 -5.976399 -0.505422 -0.068591 0.535396 0.000000 0.000000 0.000000 6.879735 11.292713 -1.271274 -20.339874 -25.884470 -9.484690 179.484726 -73.092506 179.978336 0.574346 -6.112277 -0.027439 0.125185 0.728164 0.000000 0.000000 0.000000 0.000000 0.000000 0.000000 0.000000 -7.973795 -1.077293 1.270573 9.537280 38.364705 -22.901713 -1.148121 33.640047 -0.052600 -6.688707 5.833573 -0.373840 0.054648 -0.506594 -0.000000 0.000000 0.000000 0.000000 0.000000 0.000000 0.000000 
2.051741 17.304319 0.687258 8.435024 -56.440144 -2.100628 -5.974098 0.525846 -9.489701 -1.847538 0.859275 -4.590781 -3.808775 0.811908 -0.123617 -0.189942 -7.368696 -5.821198 -0.587435 -0.077404 0.581623 0.000000 0.000000 0.000000 6.933837 11.423204 -1.171473 -20.331013 -25.285802 -9.595376 179.531197 -72.796113 179.979617 0.524124 -6.078466 -0.024627 0.119984 0.728383 0.000000 0.000000 0.000000 0.000000 0.000000 0.000000 0.000000 -7.412136 -1.400513 0.872495 10.303196 37.700038 -22.112100 -1.212639 38.515364 -0.061874 -7.445768 6.244170 -0.443714 0.047736 -0.525315 -0.000000 0.000000 0.000000 0.000000 0.000000 0.000000 0.000000 
